Coordinates
version=1
nRows=13
nColumns=63
inDegrees=yes

Units are S.I. units (second, meters, Newtons, ...)
If the header above contains a line with 'inDegrees', this indicates whether rotational values are in degrees (yes) or radians (no).

endheader
time	pelvis_tilt	pelvis_list	pelvis_rotation	pelvis_tx	pelvis_ty	pelvis_tz	hip_flexion_r	hip_adduction_r	hip_rotation_r	knee_angle_r	knee_angle_r_beta	ankle_angle_r	subtalar_angle_r	mtp_angle_r	hip_flexion_l	hip_adduction_l	hip_rotation_l	knee_angle_l	knee_angle_l_beta	ankle_angle_l	subtalar_angle_l	mtp_angle_l	L5_S1_Flex_Ext	L5_S1_Lat_Bending	L5_S1_axial_rotation	L4_L5_Flex_Ext	L4_L5_Lat_Bending	L4_L5_axial_rotation	L3_L4_Flex_Ext	L3_L4_Lat_Bending	L3_L4_axial_rotation	L2_L3_Flex_Ext	L2_L3_Lat_Bending	L2_L3_axial_rotation	L1_L2_Flex_Ext	L1_L2_Lat_Bending	L1_L2_axial_rotation	L1_T12_Flex_Ext	L1_T12_Lat_Bending	L1_T12_axial_rotation	Abs_r3	Abs_r2	Abs_r1	Abs_t1	Abs_t2	neck_flexion	neck_bending	neck_rotation	arm_flex_r	arm_add_r	arm_rot_r	elbow_flex_r	pro_sup_r	wrist_flex_r	wrist_dev_r	arm_flex_l	arm_add_l	arm_rot_l	elbow_flex_l	pro_sup_l	wrist_flex_l	wrist_dev_l
0.000000	1.265350	-3.359152	92.499563	0.127424	1.006441	0.170305	9.555025	-2.070972	-1.897838	12.345311	0.215466	20.807754	0.950989	0.000000	13.750686	-0.733007	-12.513752	22.726227	0.396647	23.205290	11.766124	0.000000	0.365145	-0.152225	-0.330559	0.678111	-0.202459	-0.351219	0.599897	-0.370119	-0.351219	0.417324	-0.370119	-0.289239	0.339074	-0.310417	-0.268579	0.208644	-0.235796	-0.247919	2.608195	-1.721996	-1.838470	0.000000	0.000000	24.675782	5.704303	9.986053	15.200844	-11.372359	63.070875	49.137874	52.889776	15.834760	8.430223	8.868793	-17.467497	54.154601	58.124678	65.431872	2.613447	1.525918
0.018182	1.279517	-3.319744	91.928618	0.128001	1.005721	0.170791	9.620891	-2.117532	-2.533897	12.469254	0.217630	20.824219	3.034321	0.000000	13.604668	-0.730633	-12.384172	22.800756	0.397948	23.612348	10.846711	0.000000	0.356443	-0.160249	-0.057146	0.661951	-0.213132	-0.060718	0.585601	-0.389630	-0.060718	0.407379	-0.389630	-0.050003	0.330993	-0.326780	-0.046431	0.203672	-0.248226	-0.042860	2.546040	-1.812772	-0.317829	0.000000	0.000000	24.976724	5.739904	8.520691	14.882341	-11.862802	61.672040	49.868715	55.898079	16.561382	9.115995	10.595210	-17.170273	56.540779	57.329367	65.513730	4.346757	1.962926
0.036364	1.283071	-3.284087	91.474003	0.128502	1.005145	0.171098	9.648948	-2.162105	-3.045540	12.524385	0.218592	20.880852	4.741161	0.000000	13.459727	-0.725904	-12.316603	22.820445	0.398292	23.967768	10.190812	0.000000	0.349294	-0.167650	0.160526	0.648675	-0.222974	0.170559	0.573856	-0.407624	0.170559	0.399209	-0.407624	0.140461	0.324355	-0.341872	0.130428	0.199587	-0.259690	0.120395	2.494976	-1.896490	0.892800	0.000000	0.000000	25.206026	5.741793	7.353635	14.601348	-12.235919	60.522220	50.439397	58.683210	17.102108	9.504711	11.980207	-16.952140	58.508137	56.681780	65.487249	5.676138	2.267656
0.054545	1.277644	-3.252029	91.125984	0.128929	1.004699	0.171243	9.642892	-2.204276	-3.443737	12.517648	0.218474	20.972411	6.103005	0.000000	13.316299	-0.719034	-12.302392	22.790543	0.397770	24.273163	9.770505	0.000000	0.343602	-0.174394	0.327376	0.638104	-0.231944	0.347837	0.564504	-0.424022	0.347837	0.392703	-0.424022	0.286454	0.319069	-0.355624	0.265993	0.196334	-0.270136	0.245532	2.454318	-1.972781	1.820769	0.000000	0.000000	25.372389	5.714250	6.455879	14.355368	-12.504657	59.601609	50.866811	61.250117	17.474119	9.627176	13.053369	-16.804930	60.089259	56.169292	65.369151	6.646037	2.454881
0.072727	1.264869	-3.223422	90.874825	0.129284	1.004373	0.171243	9.606421	-2.243633	-3.739457	12.455985	0.217398	21.093653	7.151347	0.000000	13.174815	-0.710234	-12.332883	22.716298	0.396474	24.530148	9.557869	0.000000	0.339271	-0.180449	0.448322	0.630061	-0.239997	0.476342	0.557389	-0.438743	0.476342	0.387753	-0.438743	0.392282	0.315047	-0.367971	0.364261	0.193860	-0.279515	0.336241	2.423382	-2.041274	2.493431	0.000000	0.000000	25.484513	5.661554	5.798422	14.141904	-12.681966	58.890403	51.167850	63.603746	17.694591	9.514194	13.844281	-16.720476	61.316731	55.779276	65.176158	7.300900	2.539377
0.090909	1.246381	-3.198113	90.710792	0.129572	1.004153	0.171113	9.543229	-2.279763	-3.943670	12.346340	0.215484	21.239335	7.917683	0.000000	13.035712	-0.699716	-12.399419	22.602960	0.394496	24.740336	9.524984	0.000000	0.336206	-0.185782	0.528281	0.624367	-0.247090	0.561298	0.552352	-0.451709	0.561298	0.384249	-0.451709	0.462245	0.312200	-0.378846	0.429228	0.192108	-0.287776	0.396210	2.401483	-2.101599	2.938138	0.000000	0.000000	25.551102	5.587985	5.352260	13.958459	-12.780791	58.368793	51.359404	65.749045	17.780705	9.196568	14.382527	-16.690609	62.223136	55.499108	64.924993	7.685172	2.535918
0.109091	1.223811	-3.175954	90.624150	0.129794	1.004028	0.170871	9.457012	-2.312253	-4.067348	12.195654	0.212854	21.404215	8.433508	0.000000	12.899421	-0.687694	-12.493348	22.455776	0.391927	24.905343	9.643927	0.000000	0.334309	-0.190359	0.572171	0.620845	-0.253178	0.607931	0.549236	-0.462840	0.607931	0.382082	-0.462840	0.500649	0.310439	-0.388181	0.464889	0.191024	-0.294867	0.429128	2.387936	-2.153384	3.182242	0.000000	0.000000	25.580855	5.497821	5.088389	13.802535	-12.814083	58.016976	51.458365	67.690961	17.749638	8.705103	14.697694	-16.707164	62.841059	55.316160	64.632379	7.843299	2.459279
0.127273	1.198794	-3.156793	90.605164	0.129954	1.003987	0.170533	9.351466	-2.340690	-4.121461	12.010870	0.209629	21.583050	8.730317	0.000000	12.766378	-0.674379	-12.606012	22.279995	0.388859	25.026781	9.886780	0.000000	0.333486	-0.194150	0.584910	0.619317	-0.258219	0.621467	0.547884	-0.472056	0.621467	0.381141	-0.472056	0.511796	0.309675	-0.395910	0.475239	0.190554	-0.300738	0.438683	2.382057	-2.196260	3.253095	0.000000	0.000000	25.582475	5.395344	4.977807	13.671637	-12.794788	57.815145	51.481625	69.434440	17.618569	8.070602	14.819366	-16.761971	63.203085	55.217807	64.315039	7.819727	2.324235
0.145455	1.172963	-3.140480	90.644099	0.130055	1.004016	0.170115	9.230288	-2.364660	-4.116977	11.798932	0.205930	21.770599	8.839605	0.000000	12.637016	-0.659984	-12.728757	22.080866	0.385384	25.106266	10.225619	0.000000	0.333641	-0.197120	0.571417	0.619604	-0.262169	0.607130	0.548138	-0.479276	0.607130	0.381318	-0.479276	0.499990	0.309819	-0.401966	0.464276	0.190642	-0.305338	0.428563	2.383161	-2.229856	3.178049	0.000000	0.000000	25.564663	5.284831	4.991510	13.563268	-12.735855	57.743494	51.446075	70.984430	17.404676	7.323869	14.777129	-16.846863	63.341798	55.191423	63.989694	7.658902	2.145559
0.163636	1.147952	-3.126865	90.731222	0.130099	1.004105	0.169635	9.097173	-2.383750	-4.064869	11.566781	0.201878	21.961618	8.792868	0.000000	12.511769	-0.644721	-12.852927	21.863638	0.381592	25.145410	10.632525	0.000000	0.334677	-0.199236	0.536609	0.621528	-0.264984	0.570147	0.549841	-0.484423	0.570147	0.382502	-0.484423	0.469533	0.310781	-0.406283	0.435995	0.191234	-0.308617	0.402457	2.390563	-2.253801	2.984457	0.000000	0.000000	25.536121	5.170562	5.100496	13.474929	-12.650231	57.782218	51.368606	72.345878	17.125139	6.495707	14.600567	-16.953672	63.289783	55.224382	63.673068	7.405270	1.938029
0.181818	1.125393	-3.115798	90.856796	0.130089	1.004241	0.169109	8.955817	-2.397549	-3.976105	11.321360	0.197595	22.150865	8.621599	0.000000	12.391070	-0.628802	-12.969869	21.633559	0.377577	25.145829	11.079577	0.000000	0.336499	-0.200467	0.485404	0.624913	-0.266621	0.515742	0.552834	-0.487416	0.515742	0.384585	-0.487416	0.424728	0.312473	-0.408793	0.394391	0.192276	-0.310524	0.364053	2.403580	-2.267726	2.699671	0.000000	0.000000	25.505550	5.056818	5.275760	13.404125	-12.550865	57.911510	51.266110	73.523730	16.797135	5.616921	14.319266	-17.074232	63.079625	55.304058	63.381883	7.103276	1.716416
0.200000	1.108937	-3.088171	91.005963	0.130030	1.004435	0.168624	8.798107	-2.409517	-3.947990	11.088879	0.193537	22.321124	8.491844	0.000000	12.262801	-0.607458	-13.006290	21.418294	0.373820	24.996506	11.414273	0.000000	0.336589	-0.200303	0.431690	0.625079	-0.266403	0.458670	0.552982	-0.487017	0.458670	0.384687	-0.487017	0.377728	0.312556	-0.408458	0.350748	0.192327	-0.310269	0.323767	2.404220	-2.265868	2.400929	0.000000	0.000000	25.453367	4.885944	5.430349	13.344075	-12.476180	58.051770	51.184736	74.697508	16.504593	4.758078	14.017324	-17.174856	62.792168	55.368665	63.275606	6.955945	1.508478
0.218182	1.109038	-3.083649	91.179006	0.129888	1.004618	0.168055	8.646160	-2.399506	-3.837232	10.826057	0.188950	22.484354	8.222696	0.000000	12.148082	-0.596277	-13.034265	21.184104	0.369732	24.880093	11.811928	0.000000	0.340458	-0.198357	0.362840	0.632265	-0.263815	0.385518	0.559339	-0.482286	0.385518	0.389110	-0.482286	0.317485	0.316149	-0.404490	0.294808	0.194538	-0.307255	0.272130	2.431858	-2.243857	2.018007	0.000000	0.000000	25.453042	4.800665	5.646015	13.349435	-12.430033	58.391416	51.112919	75.608807	16.208199	3.835759	13.616118	-17.287035	62.326792	55.502126	63.269104	6.806900	1.298865
